# xmcd
# 
# Track frame offsets:
#     150
#     7209
#     15570
#     24361
#     32944
#     41457
#     48039
#     57175
#     66475
#     76760
#     85572
#     94179
#     101202
#     112017
#     119295
#     126344
#     137415
#     145156
#     154930
#     165623
#     175854
#     184942
#     195788
#     203226
#     210919
# 
# Disc length: 2931
# 
# Revision: 0
# Processed by: cddbd v1.5.2PL0 Copyright (c) Steve Scherf et al.
# Submitted via: fre:ac v1.0.31
# 
DISCID=4b0b7119
DTITLE=Country - 50 Smoky Mountain Classics Disc 1
DYEAR=0
DGENRE=Country
TTITLE0=Roll On Buddy
TTITLE1=Wreck Of The Old '97
TTITLE2=Uncle Pen
TTITLE3=Keep On The Sunny Side
TTITLE4=Jacob's Ladder
TTITLE5=John Henry
TTITLE6=I Wonder How The Old Folks Are At Home
TTITLE7=Sophronie
TTITLE8=Roll In My Sweet Baby's Arms
TTITLE9=Ground Hog
TTITLE10=Working On A Building
TTITLE11=Old Joe Clark
TTITLE12=Beautiful Brown Eyes
TTITLE13=Way Down Town
TTITLE14=Down The Road
TTITLE15=In The Pines
TTITLE16=Take Me In The Lifeboat
TTITLE17=The Pale Wildwood Flower
TTITLE18=Bonapart's Retreat
TTITLE19=You Are My Flower
TTITLE20=East Tennessee Blues
TTITLE21=Cabin In Carolina
TTITLE22=Cry From The Cross
TTITLE23=Black Mountain Rag
TTITLE24=Bury Me Beneath The Willow
EXTD=
EXTT0=
EXTT1=
EXTT2=
EXTT3=
EXTT4=
EXTT5=
EXTT6=
EXTT7=
EXTT8=
EXTT9=
EXTT10=
EXTT11=
EXTT12=
EXTT13=
EXTT14=
EXTT15=
EXTT16=
EXTT17=
EXTT18=
EXTT19=
EXTT20=
EXTT21=
EXTT22=
EXTT23=
EXTT24=
PLAYORDER=
